<svg version="1" xmlns="http://www.w3.org/2000/svg" width="346.667" height="346.667" viewBox="0 0 260.000000 260.000000"><path d="M51 129v73h19v-16.3c0-14.5.2-16.6 1.8-18 1.7-1.6 2.6-.7 15.6 16.3l13.7 18H113c6.6 0 12-.2 12-.5s-8.5-11.3-18.9-24.5l-19-23.9 15.2-14.9c8.4-8.2 16.6-16.1 18.2-17.5l3-2.6-13.2-.1H97.2l-13.6 14.1L70 146.2V56H51v73zM135 129v73h19v-8l5.2 4c18 13.6 44.7 6.3 55.3-15.3 9.5-19.5 6.1-42.6-8.5-56-7.9-7.3-14.6-9.9-26-10.1-10.1-.1-14.3 1.2-21 6.5l-5 3.9V56h-19v73zm47.7 5.5c8.9 1.8 16.2 11.9 17.1 23.5 1.1 16.6-8.8 29.1-23 29.1-9.4 0-16.6-4.3-21.1-12.6-3-5.5-3.2-22.2-.3-27.5 2.4-4.6 6.4-8.8 10.1-10.8 3.2-1.7 10-3.1 12.5-2.6.8.1 2.9.5 4.7.9z"/></svg>