<?xml version="1.0" standalone="no"?>
<!DOCTYPE svg PUBLIC "-//W3C//DTD SVG 20010904//EN"
 "http://www.w3.org/TR/2001/REC-SVG-20010904/DTD/svg10.dtd">
<svg version="1.0" xmlns="http://www.w3.org/2000/svg"
 width="260.000000pt" height="260.000000pt" viewBox="0 0 260.000000 260.000000"
 preserveAspectRatio="xMidYMid meet">
<metadata>
Created by potrace 1.11, written by Peter Selinger 2001-2013
</metadata>
<g transform="translate(0.000000,260.000000) scale(0.100000,-0.100000)"
fill="#000000" stroke="none">
<path d="M510 1310 l0 -730 95 0 95 0 0 163 c0 145 2 166 18 180 17 16 26 7
156 -163 l137 -180 119 0 c66 0 120 2 120 5 0 3 -85 113 -189 245 l-190 239
152 149 c84 82 166 161 182 175 l30 26 -132 1 -131 0 -136 -141 -136 -141 0
451 0 451 -95 0 -95 0 0 -730z"/>
<path d="M1350 1310 l0 -730 95 0 95 0 0 40 0 40 52 -40 c180 -136 447 -63
553 153 95 195 61 426 -85 560 -79 73 -146 99 -260 101 -98 1 -151 -16 -217
-71 l-43 -34 0 355 0 356 -95 0 -95 0 0 -730z m500 -62 c109 -41 177 -202 141
-335 -59 -218 -329 -254 -434 -58 -30 55 -32 222 -3 275 61 116 178 162 296
118z"/>
</g>
</svg>
