<svg version="1" xmlns="http://www.w3.org/2000/svg" width="346.667" height="346.667" viewBox="0 0 260.000000 260.000000"><path d="M31 132.5V220h23v-19.3c0-19.1 0-19.4 2.4-21.6l2.4-2.3 10.3 13.4c5.6 7.3 13.2 17 16.7 21.5l6.4 8.3h14.4c7.9 0 14.4-.2 14.4-.5 0-.2-10.1-13.3-22.5-28.9C86.1 175 76 161.7 76 161.2c0-.6 9.6-10.3 21.3-21.6l21.2-20.6H87.2l-15.8 16.5c-8.6 9.1-16.1 16.5-16.6 16.5-.4 0-.8-24.1-.8-53.5V45H31v87.5zM132 132.5V220h23v-5c0-2.8.3-5 .6-5s2.6 1.8 5.1 4c7 6.1 13.8 8.3 25.8 8.3 7.6 0 11.4-.5 15.7-2.1 18.7-6.8 30.9-24.5 32.4-47 1.5-22.9-8.6-42.6-26.5-51.5-17.3-8.6-35.6-7-48.5 4.4l-4.6 4.1V45h-23v87.5zm62.5 7.3c5.5 2.8 10.9 8.7 13.7 14.7 1.8 4.1 2.3 6.8 2.3 15 0 11.5-1.7 16.3-8.1 23.4-5.9 6.6-10.5 8.6-19.9 8.6-7.1 0-8.6-.3-13.5-3.1-10.3-5.8-15.7-17.4-14.7-31.8 1-14.2 8.5-25 20.1-28.6 4.9-1.5 15.6-.6 20.1 1.8z"/></svg>